<mxfile host="app.diagrams.net" modified="2023-07-01T19:50:25.756Z" agent="Mozilla/5.0 (Macintosh; Intel Mac OS X 10_15_7) AppleWebKit/537.36 (KHTML, like Gecko) Chrome/113.0.0.0 Safari/537.36" etag="DsNiV5uX6fu-wMgt1HNO" version="21.5.2" type="device">
  <diagram name="Page-1" id="P6SPH9v9og3B5FjxKwUc">
    <mxGraphModel dx="1522" dy="493" grid="1" gridSize="10" guides="1" tooltips="1" connect="1" arrows="1" fold="1" page="1" pageScale="1" pageWidth="850" pageHeight="1100" math="0" shadow="0">
      <root>
        <mxCell id="0" />
        <mxCell id="1" parent="0" />
        <mxCell id="rvCWTvia2kuKlEFUxWVt-6" style="edgeStyle=orthogonalEdgeStyle;rounded=0;orthogonalLoop=1;jettySize=auto;html=1;exitX=1;exitY=0.5;exitDx=0;exitDy=0;entryX=0;entryY=0.5;entryDx=0;entryDy=0;fillColor=#fff2cc;strokeColor=#d6b656;" edge="1" parent="1" source="rvCWTvia2kuKlEFUxWVt-1" target="rvCWTvia2kuKlEFUxWVt-4">
          <mxGeometry relative="1" as="geometry" />
        </mxCell>
        <mxCell id="rvCWTvia2kuKlEFUxWVt-1" value="CommentService" style="rounded=0;whiteSpace=wrap;html=1;fillColor=#60a917;fontColor=#ffffff;strokeColor=#2D7600;" vertex="1" parent="1">
          <mxGeometry x="80" y="90" width="120" height="60" as="geometry" />
        </mxCell>
        <mxCell id="rvCWTvia2kuKlEFUxWVt-7" style="edgeStyle=orthogonalEdgeStyle;rounded=0;orthogonalLoop=1;jettySize=auto;html=1;exitX=1;exitY=0.5;exitDx=0;exitDy=0;fillColor=#fff2cc;strokeColor=#d6b656;" edge="1" parent="1" source="rvCWTvia2kuKlEFUxWVt-4" target="rvCWTvia2kuKlEFUxWVt-5">
          <mxGeometry relative="1" as="geometry" />
        </mxCell>
        <mxCell id="rvCWTvia2kuKlEFUxWVt-4" value="type: &#39;CommentCreated&#39;" style="rounded=1;whiteSpace=wrap;html=1;fillColor=#1ba1e2;fontColor=#ffffff;strokeColor=#006EAF;" vertex="1" parent="1">
          <mxGeometry x="290" y="90" width="120" height="60" as="geometry" />
        </mxCell>
        <mxCell id="rvCWTvia2kuKlEFUxWVt-12" style="edgeStyle=orthogonalEdgeStyle;rounded=0;orthogonalLoop=1;jettySize=auto;html=1;exitX=0;exitY=0.75;exitDx=0;exitDy=0;entryX=1;entryY=0.5;entryDx=0;entryDy=0;fillColor=#d5e8d4;strokeColor=#82b366;" edge="1" parent="1" source="rvCWTvia2kuKlEFUxWVt-5" target="rvCWTvia2kuKlEFUxWVt-11">
          <mxGeometry relative="1" as="geometry" />
        </mxCell>
        <mxCell id="rvCWTvia2kuKlEFUxWVt-32" style="edgeStyle=orthogonalEdgeStyle;rounded=0;orthogonalLoop=1;jettySize=auto;html=1;exitX=0;exitY=0.75;exitDx=0;exitDy=0;entryX=0.5;entryY=0;entryDx=0;entryDy=0;fillColor=#d5e8d4;strokeColor=#82b366;" edge="1" parent="1" source="rvCWTvia2kuKlEFUxWVt-5" target="rvCWTvia2kuKlEFUxWVt-8">
          <mxGeometry relative="1" as="geometry" />
        </mxCell>
        <mxCell id="rvCWTvia2kuKlEFUxWVt-37" style="edgeStyle=orthogonalEdgeStyle;rounded=0;orthogonalLoop=1;jettySize=auto;html=1;exitX=0.75;exitY=1;exitDx=0;exitDy=0;fillColor=#f8cecc;strokeColor=#b85450;" edge="1" parent="1" source="rvCWTvia2kuKlEFUxWVt-5" target="rvCWTvia2kuKlEFUxWVt-33">
          <mxGeometry relative="1" as="geometry" />
        </mxCell>
        <mxCell id="rvCWTvia2kuKlEFUxWVt-5" value="Event-Bus" style="whiteSpace=wrap;html=1;aspect=fixed;fillColor=#d80073;fontColor=#ffffff;strokeColor=#A50040;" vertex="1" parent="1">
          <mxGeometry x="520" y="110" width="90" height="90" as="geometry" />
        </mxCell>
        <mxCell id="rvCWTvia2kuKlEFUxWVt-16" style="edgeStyle=orthogonalEdgeStyle;rounded=0;orthogonalLoop=1;jettySize=auto;html=1;exitX=1;exitY=0.75;exitDx=0;exitDy=0;fillColor=#dae8fc;strokeColor=#6c8ebf;entryX=0.25;entryY=1;entryDx=0;entryDy=0;" edge="1" parent="1" source="rvCWTvia2kuKlEFUxWVt-8" target="rvCWTvia2kuKlEFUxWVt-5">
          <mxGeometry relative="1" as="geometry">
            <mxPoint x="520" y="275" as="targetPoint" />
          </mxGeometry>
        </mxCell>
        <mxCell id="rvCWTvia2kuKlEFUxWVt-8" value="ModerationService" style="rounded=0;whiteSpace=wrap;html=1;fillColor=#6a00ff;fontColor=#ffffff;strokeColor=#3700CC;" vertex="1" parent="1">
          <mxGeometry x="80" y="230" width="120" height="60" as="geometry" />
        </mxCell>
        <mxCell id="rvCWTvia2kuKlEFUxWVt-9" value="QueryService" style="rounded=0;whiteSpace=wrap;html=1;fillColor=#d80073;fontColor=#ffffff;strokeColor=#A50040;" vertex="1" parent="1">
          <mxGeometry x="80" y="350" width="120" height="60" as="geometry" />
        </mxCell>
        <mxCell id="rvCWTvia2kuKlEFUxWVt-61" style="edgeStyle=orthogonalEdgeStyle;rounded=0;orthogonalLoop=1;jettySize=auto;html=1;exitX=0;exitY=0.5;exitDx=0;exitDy=0;entryX=1;entryY=0.5;entryDx=0;entryDy=0;fillColor=#d5e8d4;strokeColor=#82b366;" edge="1" parent="1" source="rvCWTvia2kuKlEFUxWVt-11" target="rvCWTvia2kuKlEFUxWVt-9">
          <mxGeometry relative="1" as="geometry" />
        </mxCell>
        <mxCell id="rvCWTvia2kuKlEFUxWVt-11" value="type: &#39;CommentUpdated&#39;&lt;br&gt;status: &#39;pending&#39;" style="rounded=1;whiteSpace=wrap;html=1;fillColor=#1ba1e2;fontColor=#ffffff;strokeColor=#006EAF;" vertex="1" parent="1">
          <mxGeometry x="340" y="350" width="120" height="60" as="geometry" />
        </mxCell>
        <mxCell id="rvCWTvia2kuKlEFUxWVt-14" value="type: &#39;CommentModerated&#39;&lt;br&gt;status: &#39;approved&#39;" style="rounded=1;whiteSpace=wrap;html=1;fillColor=#1ba1e2;fontColor=#ffffff;strokeColor=#006EAF;" vertex="1" parent="1">
          <mxGeometry x="300" y="230" width="130" height="60" as="geometry" />
        </mxCell>
        <mxCell id="rvCWTvia2kuKlEFUxWVt-18" value="&lt;b&gt;CommentService&lt;/b&gt;&lt;br&gt;CommentCreated&lt;br&gt;&lt;br&gt;&lt;hr&gt;&lt;b&gt;ModerationService&lt;/b&gt;&lt;br&gt;CommentModerated&lt;br&gt;&lt;br&gt;&lt;hr&gt;&lt;br&gt;&lt;b&gt;QueryService&lt;/b&gt;&lt;br&gt;CommentUpdated" style="rounded=0;whiteSpace=wrap;html=1;" vertex="1" parent="1">
          <mxGeometry x="1040" y="10" width="210" height="200" as="geometry" />
        </mxCell>
        <mxCell id="rvCWTvia2kuKlEFUxWVt-29" value="1st Operation" style="shape=singleArrow;whiteSpace=wrap;html=1;fillColor=#fff2cc;strokeColor=#d6b656;" vertex="1" parent="1">
          <mxGeometry x="70" y="10" width="100" height="60" as="geometry" />
        </mxCell>
        <mxCell id="rvCWTvia2kuKlEFUxWVt-30" value="2nd Operation" style="shape=singleArrow;whiteSpace=wrap;html=1;fillColor=#d5e8d4;strokeColor=#82b366;" vertex="1" parent="1">
          <mxGeometry x="190" y="10" width="100" height="60" as="geometry" />
        </mxCell>
        <mxCell id="rvCWTvia2kuKlEFUxWVt-31" value="3rd Operation" style="shape=singleArrow;whiteSpace=wrap;html=1;fillColor=#dae8fc;strokeColor=#6c8ebf;" vertex="1" parent="1">
          <mxGeometry x="310" y="10" width="100" height="60" as="geometry" />
        </mxCell>
        <mxCell id="rvCWTvia2kuKlEFUxWVt-36" style="edgeStyle=orthogonalEdgeStyle;rounded=0;orthogonalLoop=1;jettySize=auto;html=1;exitX=0.5;exitY=1;exitDx=0;exitDy=0;entryX=0.5;entryY=1;entryDx=0;entryDy=0;fillColor=#f8cecc;strokeColor=#b85450;" edge="1" parent="1" source="rvCWTvia2kuKlEFUxWVt-33" target="rvCWTvia2kuKlEFUxWVt-9">
          <mxGeometry relative="1" as="geometry" />
        </mxCell>
        <mxCell id="rvCWTvia2kuKlEFUxWVt-33" value="type: &#39;CommentUpdated&#39;&lt;br&gt;status: &#39;approved&#39;" style="rounded=1;whiteSpace=wrap;html=1;fillColor=#1ba1e2;fontColor=#ffffff;strokeColor=#006EAF;" vertex="1" parent="1">
          <mxGeometry x="510" y="320" width="130" height="60" as="geometry" />
        </mxCell>
        <mxCell id="rvCWTvia2kuKlEFUxWVt-35" value="4th&amp;nbsp;Operation" style="shape=singleArrow;whiteSpace=wrap;html=1;fillColor=#f8cecc;strokeColor=#b85450;" vertex="1" parent="1">
          <mxGeometry x="420" y="10" width="100" height="60" as="geometry" />
        </mxCell>
        <mxCell id="rvCWTvia2kuKlEFUxWVt-38" value="Event" style="swimlane;fontStyle=1;align=center;verticalAlign=top;childLayout=stackLayout;horizontal=1;startSize=26;horizontalStack=0;resizeParent=1;resizeParentMax=0;resizeLast=0;collapsible=1;marginBottom=0;whiteSpace=wrap;html=1;fillColor=#fff2cc;strokeColor=#d6b656;" vertex="1" parent="1">
          <mxGeometry x="720" y="20" width="170" height="130" as="geometry" />
        </mxCell>
        <mxCell id="rvCWTvia2kuKlEFUxWVt-39" value="type: CommentCreated" style="text;strokeColor=#d6b656;fillColor=#fff2cc;align=center;verticalAlign=top;spacingLeft=4;spacingRight=4;overflow=hidden;rotatable=0;points=[[0,0.5],[1,0.5]];portConstraint=eastwest;whiteSpace=wrap;html=1;" vertex="1" parent="rvCWTvia2kuKlEFUxWVt-38">
          <mxGeometry y="26" width="170" height="26" as="geometry" />
        </mxCell>
        <mxCell id="rvCWTvia2kuKlEFUxWVt-40" value="" style="line;strokeWidth=1;fillColor=none;align=left;verticalAlign=middle;spacingTop=-1;spacingLeft=3;spacingRight=3;rotatable=0;labelPosition=right;points=[];portConstraint=eastwest;strokeColor=inherit;" vertex="1" parent="rvCWTvia2kuKlEFUxWVt-38">
          <mxGeometry y="52" width="170" height="8" as="geometry" />
        </mxCell>
        <mxCell id="rvCWTvia2kuKlEFUxWVt-41" value="{ &#39;id&#39;: &#39;jka21g&#39;, &#39;content: &#39;posting first&#39;, &#39;postId&#39;: &#39;ms1sl9&#39;&amp;nbsp; }" style="text;strokeColor=#d6b656;fillColor=#fff2cc;align=center;verticalAlign=top;spacingLeft=4;spacingRight=4;overflow=hidden;rotatable=0;points=[[0,0.5],[1,0.5]];portConstraint=eastwest;whiteSpace=wrap;html=1;" vertex="1" parent="rvCWTvia2kuKlEFUxWVt-38">
          <mxGeometry y="60" width="170" height="70" as="geometry" />
        </mxCell>
        <mxCell id="rvCWTvia2kuKlEFUxWVt-43" value="Event" style="swimlane;fontStyle=1;align=center;verticalAlign=top;childLayout=stackLayout;horizontal=1;startSize=26;horizontalStack=0;resizeParent=1;resizeParentMax=0;resizeLast=0;collapsible=1;marginBottom=0;whiteSpace=wrap;html=1;fillColor=#d5e8d4;strokeColor=#82b366;" vertex="1" parent="1">
          <mxGeometry x="720" y="170" width="170" height="130" as="geometry" />
        </mxCell>
        <mxCell id="rvCWTvia2kuKlEFUxWVt-44" value="type: CommentModerated" style="text;strokeColor=#82b366;fillColor=#d5e8d4;align=center;verticalAlign=top;spacingLeft=4;spacingRight=4;overflow=hidden;rotatable=0;points=[[0,0.5],[1,0.5]];portConstraint=eastwest;whiteSpace=wrap;html=1;" vertex="1" parent="rvCWTvia2kuKlEFUxWVt-43">
          <mxGeometry y="26" width="170" height="26" as="geometry" />
        </mxCell>
        <mxCell id="rvCWTvia2kuKlEFUxWVt-45" value="" style="line;strokeWidth=1;fillColor=none;align=left;verticalAlign=middle;spacingTop=-1;spacingLeft=3;spacingRight=3;rotatable=0;labelPosition=right;points=[];portConstraint=eastwest;strokeColor=inherit;" vertex="1" parent="rvCWTvia2kuKlEFUxWVt-43">
          <mxGeometry y="52" width="170" height="8" as="geometry" />
        </mxCell>
        <mxCell id="rvCWTvia2kuKlEFUxWVt-46" value="{ &#39;id&#39;: &#39;jka21g&#39;, &#39;content: &#39;posting first&#39;, &#39;postId&#39;: &#39;ms1sl9&#39;, &lt;br&gt;&#39;status&#39;: &#39;approved&#39; }" style="text;strokeColor=#82b366;fillColor=#d5e8d4;align=center;verticalAlign=top;spacingLeft=4;spacingRight=4;overflow=hidden;rotatable=0;points=[[0,0.5],[1,0.5]];portConstraint=eastwest;whiteSpace=wrap;html=1;" vertex="1" parent="rvCWTvia2kuKlEFUxWVt-43">
          <mxGeometry y="60" width="170" height="70" as="geometry" />
        </mxCell>
        <mxCell id="rvCWTvia2kuKlEFUxWVt-47" value="Event" style="swimlane;fontStyle=1;align=center;verticalAlign=top;childLayout=stackLayout;horizontal=1;startSize=26;horizontalStack=0;resizeParent=1;resizeParentMax=0;resizeLast=0;collapsible=1;marginBottom=0;whiteSpace=wrap;html=1;fillColor=#dae8fc;strokeColor=#6c8ebf;" vertex="1" parent="1">
          <mxGeometry x="720" y="315" width="170" height="130" as="geometry" />
        </mxCell>
        <mxCell id="rvCWTvia2kuKlEFUxWVt-48" value="type: CommentUpdated" style="text;strokeColor=#6c8ebf;fillColor=#dae8fc;align=center;verticalAlign=top;spacingLeft=4;spacingRight=4;overflow=hidden;rotatable=0;points=[[0,0.5],[1,0.5]];portConstraint=eastwest;whiteSpace=wrap;html=1;" vertex="1" parent="rvCWTvia2kuKlEFUxWVt-47">
          <mxGeometry y="26" width="170" height="26" as="geometry" />
        </mxCell>
        <mxCell id="rvCWTvia2kuKlEFUxWVt-49" value="" style="line;strokeWidth=1;fillColor=none;align=left;verticalAlign=middle;spacingTop=-1;spacingLeft=3;spacingRight=3;rotatable=0;labelPosition=right;points=[];portConstraint=eastwest;strokeColor=inherit;" vertex="1" parent="rvCWTvia2kuKlEFUxWVt-47">
          <mxGeometry y="52" width="170" height="8" as="geometry" />
        </mxCell>
        <mxCell id="rvCWTvia2kuKlEFUxWVt-50" value="{ &#39;id&#39;: &#39;jka21g&#39;, &#39;content: &#39;posting first&#39;, &#39;postId&#39;: &#39;ms1sl9&#39;, &lt;br&gt;&#39;status&#39;: &#39;approved&#39; }" style="text;strokeColor=#6c8ebf;fillColor=#dae8fc;align=center;verticalAlign=top;spacingLeft=4;spacingRight=4;overflow=hidden;rotatable=0;points=[[0,0.5],[1,0.5]];portConstraint=eastwest;whiteSpace=wrap;html=1;" vertex="1" parent="rvCWTvia2kuKlEFUxWVt-47">
          <mxGeometry y="60" width="170" height="70" as="geometry" />
        </mxCell>
        <mxCell id="rvCWTvia2kuKlEFUxWVt-51" value="Ports" style="swimlane;fontStyle=1;childLayout=stackLayout;horizontal=1;startSize=26;horizontalStack=0;resizeParent=1;resizeParentMax=0;resizeLast=0;collapsible=1;marginBottom=0;align=center;fontSize=14;movable=1;resizable=1;rotatable=1;deletable=1;editable=1;locked=0;connectable=1;fillColor=#e1d5e7;strokeColor=#9673a6;" vertex="1" parent="1">
          <mxGeometry x="-130" y="40" width="160" height="220" as="geometry" />
        </mxCell>
        <mxCell id="rvCWTvia2kuKlEFUxWVt-52" value="Posts = 4000" style="text;strokeColor=#d6b656;fillColor=#fff2cc;spacingLeft=4;spacingRight=4;overflow=hidden;rotatable=1;points=[[0,0.5],[1,0.5]];portConstraint=eastwest;fontSize=12;whiteSpace=wrap;html=1;movable=1;resizable=1;deletable=1;editable=1;locked=0;connectable=1;" vertex="1" parent="rvCWTvia2kuKlEFUxWVt-51">
          <mxGeometry y="26" width="160" height="30" as="geometry" />
        </mxCell>
        <mxCell id="rvCWTvia2kuKlEFUxWVt-55" value="Comments = 4001&lt;span style=&quot;white-space: pre;&quot;&gt;&#x9;&lt;/span&gt;" style="text;strokeColor=#82b366;fillColor=#d5e8d4;spacingLeft=4;spacingRight=4;overflow=hidden;rotatable=1;points=[[0,0.5],[1,0.5]];portConstraint=eastwest;fontSize=12;whiteSpace=wrap;html=1;movable=1;resizable=1;deletable=1;editable=1;locked=0;connectable=1;" vertex="1" parent="rvCWTvia2kuKlEFUxWVt-51">
          <mxGeometry y="56" width="160" height="30" as="geometry" />
        </mxCell>
        <mxCell id="rvCWTvia2kuKlEFUxWVt-56" value="Query = 4002" style="text;strokeColor=#6c8ebf;fillColor=#dae8fc;spacingLeft=4;spacingRight=4;overflow=hidden;rotatable=1;points=[[0,0.5],[1,0.5]];portConstraint=eastwest;fontSize=12;whiteSpace=wrap;html=1;movable=1;resizable=1;deletable=1;editable=1;locked=0;connectable=1;" vertex="1" parent="rvCWTvia2kuKlEFUxWVt-51">
          <mxGeometry y="86" width="160" height="30" as="geometry" />
        </mxCell>
        <mxCell id="rvCWTvia2kuKlEFUxWVt-57" value="Moderation = 4003" style="text;strokeColor=#b85450;fillColor=#f8cecc;spacingLeft=4;spacingRight=4;overflow=hidden;rotatable=1;points=[[0,0.5],[1,0.5]];portConstraint=eastwest;fontSize=12;whiteSpace=wrap;html=1;movable=1;resizable=1;deletable=1;editable=1;locked=0;connectable=1;" vertex="1" parent="rvCWTvia2kuKlEFUxWVt-51">
          <mxGeometry y="116" width="160" height="30" as="geometry" />
        </mxCell>
        <mxCell id="rvCWTvia2kuKlEFUxWVt-54" value="EventBus = 4005" style="text;strokeColor=#d79b00;fillColor=#ffe6cc;spacingLeft=4;spacingRight=4;overflow=hidden;rotatable=1;points=[[0,0.5],[1,0.5]];portConstraint=eastwest;fontSize=12;whiteSpace=wrap;html=1;movable=1;resizable=1;deletable=1;editable=1;locked=0;connectable=1;" vertex="1" parent="rvCWTvia2kuKlEFUxWVt-51">
          <mxGeometry y="146" width="160" height="74" as="geometry" />
        </mxCell>
        <mxCell id="rvCWTvia2kuKlEFUxWVt-62" value="If Moderation service is down, the posts will show as pending approval.&amp;nbsp;" style="shape=ext;double=1;rounded=0;whiteSpace=wrap;html=1;fillColor=#6a00ff;fontColor=#ffffff;strokeColor=#3700CC;" vertex="1" parent="1">
          <mxGeometry x="70" y="530" width="120" height="80" as="geometry" />
        </mxCell>
      </root>
    </mxGraphModel>
  </diagram>
</mxfile>
